# xmcd
#
# Track frame offsets:
#	150
#	16260
#	30392
#	47997
#	68553
#	83216
#	97634
#	118354
#	131907
#	151854
#	164222
#	180085
#	198134
#	216045
#	232321
#
# Disc length: 3411 seconds
#
# Revision: 0
# Processed by: cddbd v1.5.1PL2 Copyright (c) Steve Scherf et al.
# Submitted via: dBpowerAMP V4.0
#
DISCID=c30d510f
DTITLE=Weezil Malone and the King Size Blues Banc - Another Side
DYEAR=2005
DGENRE=Blues
TTITLE0=Cherry Tree
TTITLE1=Pray All Night
TTITLE2=Tell Your Momma
TTITLE3=Didnt See It Comin
TTITLE4=Green Eyed Girl
TTITLE5=Little Bitty Kiss
TTITLE6=Bills
TTITLE7=I Dont Wanna Talk About It
TTITLE8=Baby Got A
TTITLE9=Over You
TTITLE10=Tell Me
TTITLE11=Lottery
TTITLE12=Lucy Jean
TTITLE13=Bang Boom Bam
TTITLE14=Times Like These
EXTD=
EXTT0=
EXTT1=
EXTT2=
EXTT3=
EXTT4=
EXTT5=
EXTT6=
EXTT7=
EXTT8=
EXTT9=
EXTT10=
EXTT11=
EXTT12=
EXTT13=
EXTT14=
PLAYORDER=
